<?xml version="1.0" encoding="UTF-8"?>
<svg version="1.1" viewBox="0 0 2048 2048" width="192" height="192" xmlns="http://www.w3.org/2000/svg">
<path transform="translate(0)" d="m0 0h2048v2048h-2048z" fill="#555"/>
<path transform="translate(652,510)" d="m0 0h41l22 3 20 6 14 7 13 10 9 10 7 11 5 11 2 6 1 8 1 40v908l-1 1h-21l-58-1-3-2-1-4-1-26-4 2-12 16-9 9-10 7-14 4-6 1h-23l-15-4-16-8-9-7-7-7-8-13-4-10-3-13-1-9-1-27v-347l1-21 5-10 10-13 11-12 11-10 10-8 15-11 20-14 12-9 11-10 8-7 9-10 9-14 4-11 3-12 1-31v-297l-2-9-3-5-8-5-11-2h-9l-14 3-6 4-3 9-1 333-3 2-17 1h-59l-3-2-1-17v-288l1-31 4-17 7-14 9-12 10-10 13-9 16-7 17-4z" fill="#fff"/>
<path transform="translate(1284,510)" d="m0 0h196l4 1v30l-4 55-6 56-15 127-14 120-15 127-9 77-14 118-16 139-8 65-1 10-1 2 104 1 2 2v74l-2 1-73 1h-117l-9-1-3-3v-20l3-50 5-45 15-127 25-211 26-221 11-92 11-94 6-52 1-12h-100l-3-3v-74z" fill="#fff"/>
<path transform="translate(941,510)" d="m0 0h194l2 1v78l-4 3-101 1v370h54l49 1 1 1 1 12v60l-5 5h-100l-1 472-3 1-30 1h-52l-5-2-1-22-1-147v-808l1-26z" fill="#fff"/>
<path transform="translate(699,1015)" d="m0 0h1v181l-1 74v71l1 51v54l-2 9-6 9-10 6-3 1h-14l-13-4-6-5-3-6v-388l2-10 7-9 9-8 17-12z" fill="#555"/>
<path transform="translate(1201,496)" d="m0 0 9 1 1 1v1029l-2 4h-10l-2-3-1-120v-906l3-5z" fill="#fff"/>
<path transform="translate(855,497)" d="m0 0h7l5 2v1050l-10 1-3-1-1-20-1-235v-794z" fill="#fff"/>
</svg>
